PathFileType	4	(X/Y/Z)	C:\Git\research_data\Projects\torsion_deformities_healthy_kinematics\simulations\TD01\pre\dynamic_13_l\marker_experimental.trc
DataRate	CameraRate	NumFrames	NumMarkers	Units	OrigDataRate	OrigDataStartFrame	OrigNumFrames
200	200	5	30	mm	200	257	513
Frame#	Time	C7			T10			CLAV			STRN			RBAK			LASI			RASI			SACR			RT1			RT2			RT3			RKNE			RS1			RS2			RS3			RANK			RHEE			RTOE			LT1			LT2			LT3			LKNE			LS1			LS2			LS3			LANK			LHEE			LTOE			RHJC			LHJC		
		X1	Y1	Z1	X2	Y2	Z2	X3	Y3	Z3	X4	Y4	Z4	X5	Y5	Z5	X6	Y6	Z6	X7	Y7	Z7	X8	Y8	Z8	X9	Y9	Z9	X10	Y10	Z10	X11	Y11	Z11	X12	Y12	Z12	X13	Y13	Z13	X14	Y14	Z14	X15	Y15	Z15	X16	Y16	Z16	X17	Y17	Z17	X18	Y18	Z18	X19	Y19	Z19	X20	Y20	Z20	X21	Y21	Z21	X22	Y22	Z22	X23	Y23	Z23	X24	Y24	Z24	X25	Y25	Z25	X26	Y26	Z26	X27	Y27	Z27	X28	Y28	Z28	X29	Y29	Z29	X30	Y30	Z30	

257	1.280000	810.258240	1257.693848	179.795013	771.456055	1069.373779	172.625229	927.682739	1208.868042	172.447525	975.825439	1077.407227	159.874161	778.931946	1178.073364	269.605896	908.375854	870.579834	60.414505	917.838318	873.867371	262.193726	750.690247	906.971375	171.223083	951.679687	696.839172	314.821594	943.932434	631.755127	326.817505	991.889465	644.575134	308.090240	1020.790527	503.018158	309.641968	933.786987	391.821136	327.104950	892.050537	340.775879	315.308502	940.504517	325.916779	318.386505	834.558167	154.550919	285.581360	793.144897	155.932098	227.897308	952.022400	85.904457	283.358948	857.349365	670.340149	29.404900	828.326782	610.885132	40.629021	879.584045	610.804199	49.648636	842.846924	463.302399	79.258087	776.943665	330.260590	59.705074	756.026489	269.025848	71.710342	806.330078	273.334747	78.549370	730.457764	96.184738	109.604507	687.846375	91.852974	149.813187	874.910278	63.698009	137.580673	853.032508	813.896061	239.131880	846.103456	811.488705	91.375553	
258	1.285000	816.521362	1257.356201	179.840958	777.552002	1069.027100	172.787308	933.873657	1208.361450	172.526413	981.896301	1076.857422	159.861511	785.012939	1177.661133	269.527924	914.037903	870.231506	60.457516	924.086975	873.358398	262.304321	756.735168	906.552856	171.781418	958.536194	696.803772	314.957092	951.142517	631.684631	326.879120	999.034729	644.759827	308.145905	1028.126343	503.194122	309.481934	944.007141	389.759338	327.198029	903.893433	337.473724	315.347778	952.752441	324.102356	318.570679	852.315552	149.362961	285.947723	811.074585	149.444275	228.067352	971.983459	84.472435	284.433685	861.724121	670.114014	29.697794	832.183960	610.924805	40.868397	883.427673	610.433350	50.068024	845.084717	463.140320	79.364548	778.487122	330.567993	60.059429	757.244568	269.454803	72.073792	807.553650	273.483582	78.910439	730.582336	96.700226	110.015503	688.049194	92.577003	150.304764	874.922668	63.669174	137.605453	859.210338	813.386932	239.365962	851.852066	811.097315	91.566876	
259	1.290000	822.809753	1256.976196	179.895370	783.658875	1068.643921	172.974426	940.092896	1207.805908	172.618362	987.983215	1076.253662	159.870071	791.119690	1177.217529	269.468018	919.701111	869.865112	60.512531	930.339783	872.791504	262.433167	762.790405	906.098389	172.366333	965.237854	696.604126	315.097809	958.128235	631.449036	326.851990	1005.996826	644.763000	308.217987	1035.219482	503.203613	309.272430	954.130798	387.594482	327.304169	915.721985	334.078033	315.409698	964.949768	322.257141	318.758453	870.241028	144.247849	286.365204	829.210083	143.065918	228.290451	991.982727	83.135422	285.538116	866.065430	669.893738	29.974474	836.036072	610.965576	41.116257	887.257446	610.080078	50.459682	847.383423	462.994629	79.471588	780.119141	330.901184	60.423340	758.545166	269.910095	72.427147	808.853638	273.660645	79.285133	730.718933	97.249687	110.407249	688.260254	93.341072	150.770996	874.934509	63.645603	137.625793	865.390941	812.823977	239.606132	857.601327	810.681279	91.760262	
260	1.295000	829.123535	1256.555176	179.959839	789.778259	1068.225464	173.187149	946.340759	1207.204224	172.724625	994.087830	1075.599121	159.900543	797.253296	1176.744263	269.427734	925.368591	869.482239	60.578747	936.600952	872.169006	262.578217	768.859253	905.610901	172.977676	971.773193	696.231934	315.245056	964.872864	631.040955	326.738953	1012.759338	644.572693	308.307892	1042.069214	503.048340	309.010864	964.157471	385.340546	327.419159	927.534363	330.609711	315.491882	977.089600	320.397583	318.948853	888.319336	139.245331	286.835693	847.531250	136.832169	228.573242	1012.003174	81.931511	286.666565	870.375061	669.679993	30.233986	839.879028	611.007446	41.369560	891.070801	609.741516	50.822033	849.747742	462.863922	79.574883	781.822021	331.260376	60.787277	759.909668	270.392914	72.766991	810.214600	273.863220	79.654388	730.870117	97.832977	110.772415	688.480591	94.145027	151.204239	874.947021	63.626827	137.640717	871.577895	812.210124	239.851144	863.354015	810.242982	91.955299	
261	1.300000	835.462708	1256.094971	180.035919	795.911804	1067.772949	173.425919	952.617554	1206.559570	172.846375	1000.211853	1074.897949	159.953613	803.414612	1176.242554	269.408478	931.043518	869.084106	60.655415	942.874512	871.493530	262.737366	774.944885	905.093079	173.615280	978.132507	695.679443	315.399292	971.362305	630.453979	326.544678	1019.307190	644.176880	308.415314	1048.676636	502.731415	308.695160	974.084839	383.014496	327.536133	939.325562	327.093567	315.589203	989.161682	318.542328	319.140900	906.531250	134.396179	287.360382	866.014893	130.777039	228.921616	1032.025146	80.903564	287.812042	874.656189	669.473083	30.475828	843.710266	611.050659	41.624535	894.867249	609.415039	51.153748	852.181519	462.746338	79.669418	783.577637	331.645325	61.140751	761.319214	270.904236	73.088997	811.620544	274.088501	79.999237	731.038147	98.449471	111.104324	688.711609	94.988564	151.597717	874.961426	63.612186	137.649292	877.774720	811.548471	240.099844	869.113021	809.784485	92.151746	
